<?xml version="1.0" encoding="utf-8"?>
<!-- Generator: Adobe Illustrator 24.1.3, SVG Export Plug-In . SVG Version: 6.00 Build 0)  -->
<svg version="1.1" xmlns="http://www.w3.org/2000/svg" xmlns:xlink="http://www.w3.org/1999/xlink" x="0px" y="0px"
	 viewBox="0 0 448 512" style="enable-background:new 0 0 448 512;" xml:space="preserve">
<style type="text/css">
	.st0{fill:#FFFFFF;}
	.st1{font-family:'DINNextRoundedLTPro-Bold';}
	.st2{font-size:303.3107px;}
	.st3{display:none;}
	.st4{display:inline;stroke:#FFFFFF;stroke-width:40;stroke-miterlimit:10;}
</style>
<g id="Layer_1" focusable="false">
	<path d="M400,32H48C21.5,32,0,53.5,0,80v352c0,26.5,21.5,48,48,48h352c26.5,0,48-21.5,48-48V80C448,53.5,426.5,32,400,32z"/>
</g>
<g id="Layer_2">
	<text transform="matrix(1.0361 0 0 1 42.3799 349.2012)" class="st0 st1 st2">CV</text>
	<g class="st3">
		<path class="st4" d="M389.5,246c-4.2-2.9-10.5-2.5-14.1,0.9L239.2,376.5v1.7c0,5.1-4.5,9.2-10,9.2c-5.5,0-10-4.1-10-9.2v-3.4
			L86.6,246.9c-3.6-3.4-9.9-3.9-14.1-1c-4.2,2.9-4.7,8.1-1.2,11.5l151,145.7c1.9,1.8,4.7,2.9,7.6,2.9c0,0,0,0,0,0
			c2.9,0,5.7-1,7.6-2.8l153-145.7C394.2,254.1,393.7,248.9,389.5,246z"/>
		<path class="st4" d="M230,385.2l9.2-8.7v-282c0-5.1-4.5-9.2-10-9.2c-5.5,0-10,4.1-10,9.2v280.3L230,385.2z"/>
	</g>
</g>
</svg>
