<?xml version="1.0" encoding="utf-8"?>
<!-- Generator: Adobe Illustrator 24.1.3, SVG Export Plug-In . SVG Version: 6.00 Build 0)  -->
<svg version="1.1" id="Layer_1" xmlns="http://www.w3.org/2000/svg" xmlns:xlink="http://www.w3.org/1999/xlink" x="0px" y="0px"
	 viewBox="0 0 15 14" style="enable-background:new 0 0 15 14;" xml:space="preserve">
<style type="text/css">
	.st0{fill:url(#path-1_2_);}
</style>
<desc>Created with Sketch.</desc>
<g id="GIFOS">
	<g id="_x30_0-UI-Kit" transform="translate(-669.000000, -2948.000000)">
		<g id="burger" transform="translate(669.000000, 2948.000000)">
			<g id="Combined-Shape">
				<linearGradient id="path-1_2_" gradientUnits="userSpaceOnUse" x1="0" y1="7" x2="15" y2="7">
					<stop  offset="0" style="stop-color:#FFFFFF"/>
					<stop  offset="3.628362e-03" style="stop-color:#EF81AA"/>
					<stop  offset="1" style="stop-color:#EFA883"/>
				</linearGradient>
				<path id="path-1_1_" class="st0" d="M14,12c0.6,0,1,0.4,1,1s-0.4,1-1,1l0,0H1c-0.6,0-1-0.4-1-1s0.4-1,1-1l0,0H14z M14,6
					c0.6,0,1,0.4,1,1s-0.4,1-1,1l0,0H1C0.4,8,0,7.6,0,7s0.4-1,1-1l0,0H14z M14,0c0.6,0,1,0.4,1,1s-0.4,1-1,1l0,0H1C0.4,2,0,1.6,0,1
					s0.4-1,1-1l0,0H14z"/>
			</g>
		</g>
	</g>
</g>
</svg>
