<?xml version="1.0" encoding="utf-8"?>
<!-- Generator: Adobe Illustrator 24.1.3, SVG Export Plug-In . SVG Version: 6.00 Build 0)  -->
<svg version="1.1" id="Layer_1" xmlns="http://www.w3.org/2000/svg" xmlns:xlink="http://www.w3.org/1999/xlink" x="0px" y="0px"
	 viewBox="0 0 15 14" style="enable-background:new 0 0 15 14;" xml:space="preserve">
<style type="text/css">
	.st0{fill:url(#path-1_1_);}
</style>
<linearGradient id="path-1_1_" gradientUnits="userSpaceOnUse" x1="2.056193e-05" y1="7.0108" x2="15" y2="7.0108" gradientTransform="matrix(0.9292 0.8536 -0.6765 0.7364 5.2768 -4.5474)">
	<stop  offset="0" style="stop-color:#FFFFFF"/>
	<stop  offset="3.628362e-03" style="stop-color:#EF81AA"/>
	<stop  offset="1" style="stop-color:#EFA883"/>
</linearGradient>
<path id="path-1_2_" class="st0" d="M14.2,11.8c0.5,0.5,0.6,1.2,0.3,1.6c-0.4,0.4-1.1,0.4-1.6-0.1l0,0L0.8,2.2
	C0.3,1.7,0.2,1,0.5,0.6s1.1-0.4,1.6,0.1l0,0L14.2,11.8z M2.1,13.3c-0.5,0.5-1.2,0.5-1.6,0.1s-0.3-1.1,0.3-1.6l0,0L12.8,0.7
	c0.5-0.5,1.2-0.5,1.6-0.1c0.4,0.4,0.3,1.1-0.3,1.6l0,0L2.1,13.3z"/>
</svg>
